<svg width="50" height="34" viewBox="0 0 50 34" fill="none" xmlns="http://www.w3.org/2000/svg">
<g clip-path="url(#clip0_42_207)">
<path d="M0 2C0 0.89543 0.895431 0 2 0H22.9996C24.1042 0 24.9996 0.895431 24.9996 2V32C24.9996 33.1046 24.1042 34 22.9996 34H2C0.895432 34 0 33.1046 0 32V2Z" fill="#EB5757"/>
<path d="M25.0005 2C25.0005 0.89543 25.8959 0 27.0005 0H48.0001C49.1047 0 50.0001 0.895431 50.0001 2V32C50.0001 33.1046 49.1047 34 48.0001 34H27.0005C25.8959 34 25.0005 33.1046 25.0005 32V2Z" fill="#EB5757"/>
<path d="M23.4595 0H27.3299V33.9944H23.4595V0Z" fill="#333333"/>
</g>
<defs>
<clipPath id="clip0_42_207">
<rect width="50" height="34" fill="white"/>
</clipPath>
</defs>
</svg>
